<svg width="40" height="40" viewBox="0 0 40 40" fill="none" xmlns="http://www.w3.org/2000/svg">
<path d="M9.73467 6.52525L6.70458 5L9.73467 3.47475C9.98599 3.34824 10.0748 3.05709 9.93138 2.82949L9.51632 2.17049C9.37296 1.94289 9.05352 1.86777 8.80834 2.00402L5.85229 3.64684L5.92633 0.478789C5.93247 0.216035 5.7018 0 5.41506 0H4.58494C4.29823 0 4.06753 0.216035 4.07369 0.478789L4.14771 3.64684L1.19166 2.00404C0.946498 1.86779 0.62704 1.94291 0.483685 2.17051L0.0686207 2.82951C-0.0747341 3.05711 0.0140317 3.34826 0.26535 3.47477L3.29542 5L0.265329 6.52525C0.0140104 6.65176 -0.0747554 6.94291 0.0686207 7.17051L0.483685 7.82951C0.62704 8.05711 0.946498 8.13223 1.19166 7.99598L4.14771 6.35316L4.07367 9.52121C4.06753 9.78396 4.29823 10 4.58494 10H5.41509C5.70179 10 5.93249 9.78396 5.92635 9.52121L5.85229 6.35316L8.80834 7.99596C9.0535 8.13221 9.37296 8.05709 9.51632 7.82949L9.93138 7.17049C10.0747 6.94289 9.98599 6.65176 9.73467 6.52525Z" fill="white"/>
<path d="M24.7347 6.52525L21.7046 5L24.7347 3.47475C24.986 3.34824 25.0748 3.05709 24.9314 2.82949L24.5163 2.17049C24.373 1.94289 24.0535 1.86777 23.8083 2.00402L20.8523 3.64684L20.9263 0.478789C20.9325 0.216035 20.7018 0 20.4151 0H19.5849C19.2982 0 19.0675 0.216035 19.0737 0.478789L19.1477 3.64684L16.1917 2.00404C15.9465 1.86779 15.627 1.94291 15.4837 2.17051L15.0686 2.82951C14.9253 3.05711 15.014 3.34826 15.2654 3.47477L18.2954 5L15.2653 6.52525C15.014 6.65176 14.9252 6.94291 15.0686 7.17051L15.4837 7.82951C15.627 8.05711 15.9465 8.13223 16.1917 7.99598L19.1477 6.35316L19.0737 9.52121C19.0675 9.78396 19.2982 10 19.5849 10H20.4151C20.7018 10 20.9325 9.78396 20.9264 9.52121L20.8523 6.35316L23.8083 7.99596C24.0535 8.13221 24.373 8.05709 24.5163 7.82949L24.9314 7.17049C25.0747 6.94289 24.986 6.65176 24.7347 6.52525Z" fill="white"/>
<path d="M9.73467 6.52525L6.70458 5L9.73467 3.47475C9.98599 3.34824 10.0748 3.05709 9.93138 2.82949L9.51632 2.17049C9.37296 1.94289 9.05352 1.86777 8.80834 2.00402L5.85229 3.64684L5.92633 0.478789C5.93247 0.216035 5.7018 0 5.41506 0H4.58494C4.29823 0 4.06753 0.216035 4.07369 0.478789L4.14771 3.64684L1.19166 2.00404C0.946498 1.86779 0.62704 1.94291 0.483685 2.17051L0.0686207 2.82951C-0.0747341 3.05711 0.0140317 3.34826 0.26535 3.47477L3.29542 5L0.265329 6.52525C0.0140104 6.65176 -0.0747554 6.94291 0.0686207 7.17051L0.483685 7.82951C0.62704 8.05711 0.946498 8.13223 1.19166 7.99598L4.14771 6.35316L4.07367 9.52121C4.06753 9.78396 4.29823 10 4.58494 10H5.41509C5.70179 10 5.93249 9.78396 5.92635 9.52121L5.85229 6.35316L8.80834 7.99596C9.0535 8.13221 9.37296 8.05709 9.51632 7.82949L9.93138 7.17049C10.0747 6.94289 9.98599 6.65176 9.73467 6.52525Z" fill="white"/>
<path d="M9.73467 21.5253L6.70458 20L9.73467 18.4747C9.98599 18.3482 10.0748 18.0571 9.93138 17.8295L9.51632 17.1705C9.37296 16.9429 9.05352 16.8678 8.80834 17.004L5.85229 18.6468L5.92633 15.4788C5.93247 15.216 5.7018 15 5.41506 15H4.58494C4.29823 15 4.06753 15.216 4.07369 15.4788L4.14771 18.6468L1.19166 17.004C0.946498 16.8678 0.62704 16.9429 0.483685 17.1705L0.0686207 17.8295C-0.0747341 18.0571 0.0140317 18.3483 0.26535 18.4748L3.29542 20L0.265329 21.5253C0.0140104 21.6518 -0.0747554 21.9429 0.0686207 22.1705L0.483685 22.8295C0.62704 23.0571 0.946498 23.1322 1.19166 22.996L4.14771 21.3532L4.07367 24.5212C4.06753 24.784 4.29823 25 4.58494 25H5.41509C5.70179 25 5.93249 24.784 5.92635 24.5212L5.85229 21.3532L8.80834 22.996C9.0535 23.1322 9.37296 23.0571 9.51632 22.8295L9.93138 22.1705C10.0747 21.9429 9.98599 21.6518 9.73467 21.5253Z" fill="white"/>
<path d="M24.7347 21.5253L21.7046 20L24.7347 18.4747C24.986 18.3482 25.0748 18.0571 24.9314 17.8295L24.5163 17.1705C24.373 16.9429 24.0535 16.8678 23.8083 17.004L20.8523 18.6468L20.9263 15.4788C20.9325 15.216 20.7018 15 20.4151 15H19.5849C19.2982 15 19.0675 15.216 19.0737 15.4788L19.1477 18.6468L16.1917 17.004C15.9465 16.8678 15.627 16.9429 15.4837 17.1705L15.0686 17.8295C14.9253 18.0571 15.014 18.3483 15.2654 18.4748L18.2954 20L15.2653 21.5253C15.014 21.6518 14.9252 21.9429 15.0686 22.1705L15.4837 22.8295C15.627 23.0571 15.9465 23.1322 16.1917 22.996L19.1477 21.3532L19.0737 24.5212C19.0675 24.784 19.2982 25 19.5849 25H20.4151C20.7018 25 20.9325 24.784 20.9264 24.5212L20.8523 21.3532L23.8083 22.996C24.0535 23.1322 24.373 23.0571 24.5163 22.8295L24.9314 22.1705C25.0747 21.9429 24.986 21.6518 24.7347 21.5253Z" fill="white"/>
<path d="M9.73467 21.5253L6.70458 20L9.73467 18.4747C9.98599 18.3482 10.0748 18.0571 9.93138 17.8295L9.51632 17.1705C9.37296 16.9429 9.05352 16.8678 8.80834 17.004L5.85229 18.6468L5.92633 15.4788C5.93247 15.216 5.7018 15 5.41506 15H4.58494C4.29823 15 4.06753 15.216 4.07369 15.4788L4.14771 18.6468L1.19166 17.004C0.946498 16.8678 0.62704 16.9429 0.483685 17.1705L0.0686207 17.8295C-0.0747341 18.0571 0.0140317 18.3483 0.26535 18.4748L3.29542 20L0.265329 21.5253C0.0140104 21.6518 -0.0747554 21.9429 0.0686207 22.1705L0.483685 22.8295C0.62704 23.0571 0.946498 23.1322 1.19166 22.996L4.14771 21.3532L4.07367 24.5212C4.06753 24.784 4.29823 25 4.58494 25H5.41509C5.70179 25 5.93249 24.784 5.92635 24.5212L5.85229 21.3532L8.80834 22.996C9.0535 23.1322 9.37296 23.0571 9.51632 22.8295L9.93138 22.1705C10.0747 21.9429 9.98599 21.6518 9.73467 21.5253Z" fill="white"/>
<path d="M39.7347 21.5253L36.7046 20L39.7347 18.4747C39.986 18.3482 40.0748 18.0571 39.9314 17.8295L39.5163 17.1705C39.373 16.9429 39.0535 16.8678 38.8083 17.004L35.8523 18.6468L35.9263 15.4788C35.9325 15.216 35.7018 15 35.4151 15H34.5849C34.2982 15 34.0675 15.216 34.0737 15.4788L34.1477 18.6468L31.1917 17.004C30.9465 16.8678 30.627 16.9429 30.4837 17.1705L30.0686 17.8295C29.9253 18.0571 30.014 18.3483 30.2654 18.4748L33.2954 20L30.2653 21.5253C30.014 21.6518 29.9252 21.9429 30.0686 22.1705L30.4837 22.8295C30.627 23.0571 30.9465 23.1322 31.1917 22.996L34.1477 21.3532L34.0737 24.5212C34.0675 24.784 34.2982 25 34.5849 25H35.4151C35.7018 25 35.9325 24.784 35.9264 24.5212L35.8523 21.3532L38.8083 22.996C39.0535 23.1322 39.373 23.0571 39.5163 22.8295L39.9314 22.1705C40.0747 21.9429 39.986 21.6518 39.7347 21.5253Z" fill="white"/>
<path d="M9.73467 36.5253L6.70458 35L9.73467 33.4747C9.98599 33.3482 10.0748 33.0571 9.93138 32.8295L9.51632 32.1705C9.37296 31.9429 9.05352 31.8678 8.80834 32.004L5.85229 33.6468L5.92633 30.4788C5.93247 30.216 5.7018 30 5.41506 30H4.58494C4.29823 30 4.06753 30.216 4.07369 30.4788L4.14771 33.6468L1.19166 32.004C0.946498 31.8678 0.62704 31.9429 0.483685 32.1705L0.0686207 32.8295C-0.0747341 33.0571 0.0140317 33.3483 0.26535 33.4748L3.29542 35L0.265329 36.5253C0.0140104 36.6518 -0.0747554 36.9429 0.0686207 37.1705L0.483685 37.8295C0.62704 38.0571 0.946498 38.1322 1.19166 37.996L4.14771 36.3532L4.07367 39.5212C4.06753 39.784 4.29823 40 4.58494 40H5.41509C5.70179 40 5.93249 39.784 5.92635 39.5212L5.85229 36.3532L8.80834 37.996C9.0535 38.1322 9.37296 38.0571 9.51632 37.8295L9.93138 37.1705C10.0747 36.9429 9.98599 36.6518 9.73467 36.5253Z" fill="white"/>
<path d="M24.7347 36.5253L21.7046 35L24.7347 33.4747C24.986 33.3482 25.0748 33.0571 24.9314 32.8295L24.5163 32.1705C24.373 31.9429 24.0535 31.8678 23.8083 32.004L20.8523 33.6468L20.9263 30.4788C20.9325 30.216 20.7018 30 20.4151 30H19.5849C19.2982 30 19.0675 30.216 19.0737 30.4788L19.1477 33.6468L16.1917 32.004C15.9465 31.8678 15.627 31.9429 15.4837 32.1705L15.0686 32.8295C14.9253 33.0571 15.014 33.3483 15.2654 33.4748L18.2954 35L15.2653 36.5253C15.014 36.6518 14.9252 36.9429 15.0686 37.1705L15.4837 37.8295C15.627 38.0571 15.9465 38.1322 16.1917 37.996L19.1477 36.3532L19.0737 39.5212C19.0675 39.784 19.2982 40 19.5849 40H20.4151C20.7018 40 20.9325 39.784 20.9264 39.5212L20.8523 36.3532L23.8083 37.996C24.0535 38.1322 24.373 38.0571 24.5163 37.8295L24.9314 37.1705C25.0747 36.9429 24.986 36.6518 24.7347 36.5253Z" fill="white"/>
<path d="M9.73467 36.5253L6.70458 35L9.73467 33.4747C9.98599 33.3482 10.0748 33.0571 9.93138 32.8295L9.51632 32.1705C9.37296 31.9429 9.05352 31.8678 8.80834 32.004L5.85229 33.6468L5.92633 30.4788C5.93247 30.216 5.7018 30 5.41506 30H4.58494C4.29823 30 4.06753 30.216 4.07369 30.4788L4.14771 33.6468L1.19166 32.004C0.946498 31.8678 0.62704 31.9429 0.483685 32.1705L0.0686207 32.8295C-0.0747341 33.0571 0.0140317 33.3483 0.26535 33.4748L3.29542 35L0.265329 36.5253C0.0140104 36.6518 -0.0747554 36.9429 0.0686207 37.1705L0.483685 37.8295C0.62704 38.0571 0.946498 38.1322 1.19166 37.996L4.14771 36.3532L4.07367 39.5212C4.06753 39.784 4.29823 40 4.58494 40H5.41509C5.70179 40 5.93249 39.784 5.92635 39.5212L5.85229 36.3532L8.80834 37.996C9.0535 38.1322 9.37296 38.0571 9.51632 37.8295L9.93138 37.1705C10.0747 36.9429 9.98599 36.6518 9.73467 36.5253Z" fill="white"/>
<path d="M39.7347 36.5253L36.7046 35L39.7347 33.4747C39.986 33.3482 40.0748 33.0571 39.9314 32.8295L39.5163 32.1705C39.373 31.9429 39.0535 31.8678 38.8083 32.004L35.8523 33.6468L35.9263 30.4788C35.9325 30.216 35.7018 30 35.4151 30H34.5849C34.2982 30 34.0675 30.216 34.0737 30.4788L34.1477 33.6468L31.1917 32.004C30.9465 31.8678 30.627 31.9429 30.4837 32.1705L30.0686 32.8295C29.9253 33.0571 30.014 33.3483 30.2654 33.4748L33.2954 35L30.2653 36.5253C30.014 36.6518 29.9252 36.9429 30.0686 37.1705L30.4837 37.8295C30.627 38.0571 30.9465 38.1322 31.1917 37.996L34.1477 36.3532L34.0737 39.5212C34.0675 39.784 34.2982 40 34.5849 40H35.4151C35.7018 40 35.9325 39.784 35.9264 39.5212L35.8523 36.3532L38.8083 37.996C39.0535 38.1322 39.373 38.0571 39.5163 37.8295L39.9314 37.1705C40.0747 36.9429 39.986 36.6518 39.7347 36.5253Z" fill="white"/>
<path d="M39.7347 6.52525L36.7046 5L39.7347 3.47475C39.986 3.34824 40.0748 3.05709 39.9314 2.82949L39.5163 2.17049C39.373 1.94289 39.0535 1.86777 38.8083 2.00402L35.8523 3.64684L35.9263 0.478789C35.9325 0.216035 35.7018 0 35.4151 0H34.5849C34.2982 0 34.0675 0.216035 34.0737 0.478789L34.1477 3.64684L31.1917 2.00404C30.9465 1.86779 30.627 1.94291 30.4837 2.17051L30.0686 2.82951C29.9253 3.05711 30.014 3.34826 30.2654 3.47477L33.2954 5L30.2653 6.52525C30.014 6.65176 29.9252 6.94291 30.0686 7.17051L30.4837 7.82951C30.627 8.05711 30.9465 8.13223 31.1917 7.99598L34.1477 6.35316L34.0737 9.52121C34.0675 9.78396 34.2982 10 34.5849 10H35.4151C35.7018 10 35.9325 9.78396 35.9264 9.52121L35.8523 6.35316L38.8083 7.99596C39.0535 8.13221 39.373 8.05709 39.5163 7.82949L39.9314 7.17049C40.0747 6.94289 39.986 6.65176 39.7347 6.52525Z" fill="white"/>
</svg>
